<mxfile host="app.diagrams.net" modified="2022-07-12T17:19:04.005Z" agent="5.0 (Windows NT 10.0; Win64; x64) AppleWebKit/537.36 (KHTML, like Gecko) Chrome/103.0.0.0 Safari/537.36" etag="PnhLX4dBj2esBiVC1ZGy" version="20.1.1" type="github">
  <diagram id="dsWrFNhN2J_Zbikj7W2-" name="Page-1">
    <mxGraphModel dx="1221" dy="654" grid="1" gridSize="10" guides="1" tooltips="1" connect="1" arrows="1" fold="1" page="1" pageScale="1" pageWidth="1169" pageHeight="827" math="0" shadow="0">
      <root>
        <mxCell id="0" />
        <mxCell id="1" parent="0" />
        <mxCell id="qfALEyXTaFNetK454jgi-1" value="Microcontroller" style="rounded=1;whiteSpace=wrap;html=1;" vertex="1" parent="1">
          <mxGeometry x="260" y="370" width="440" height="310" as="geometry" />
        </mxCell>
        <mxCell id="qfALEyXTaFNetK454jgi-2" value="GND" style="rounded=0;whiteSpace=wrap;html=1;" vertex="1" parent="1">
          <mxGeometry x="350" y="620" width="30" height="60" as="geometry" />
        </mxCell>
        <mxCell id="qfALEyXTaFNetK454jgi-3" value="5v" style="rounded=0;whiteSpace=wrap;html=1;" vertex="1" parent="1">
          <mxGeometry x="630" y="530" width="60" height="20" as="geometry" />
        </mxCell>
        <mxCell id="qfALEyXTaFNetK454jgi-4" value="Rx" style="rounded=0;whiteSpace=wrap;html=1;" vertex="1" parent="1">
          <mxGeometry x="630" y="500" width="60" height="20" as="geometry" />
        </mxCell>
        <mxCell id="qfALEyXTaFNetK454jgi-5" value="Tx" style="rounded=0;whiteSpace=wrap;html=1;" vertex="1" parent="1">
          <mxGeometry x="630" y="470" width="60" height="20" as="geometry" />
        </mxCell>
        <mxCell id="qfALEyXTaFNetK454jgi-6" value="GND" style="rounded=0;whiteSpace=wrap;html=1;" vertex="1" parent="1">
          <mxGeometry x="630" y="560" width="60" height="20" as="geometry" />
        </mxCell>
        <mxCell id="qfALEyXTaFNetK454jgi-7" value="Vin" style="rounded=0;whiteSpace=wrap;html=1;direction=south;" vertex="1" parent="1">
          <mxGeometry x="260" y="570" width="60" height="30" as="geometry" />
        </mxCell>
        <mxCell id="qfALEyXTaFNetK454jgi-11" value="3.3v" style="rounded=0;whiteSpace=wrap;html=1;direction=west;" vertex="1" parent="1">
          <mxGeometry x="555" y="370" width="30" height="60" as="geometry" />
        </mxCell>
        <mxCell id="qfALEyXTaFNetK454jgi-14" value="" style="endArrow=none;html=1;rounded=0;" edge="1" parent="1">
          <mxGeometry width="50" height="50" relative="1" as="geometry">
            <mxPoint x="700" y="520" as="sourcePoint" />
            <mxPoint x="820" y="520" as="targetPoint" />
          </mxGeometry>
        </mxCell>
        <mxCell id="qfALEyXTaFNetK454jgi-15" value="Wireless communication" style="rounded=1;whiteSpace=wrap;html=1;" vertex="1" parent="1">
          <mxGeometry x="820" y="490" width="120" height="60" as="geometry" />
        </mxCell>
        <mxCell id="qfALEyXTaFNetK454jgi-16" value="&lt;span style=&quot;color: rgb(0, 0, 0); font-family: Helvetica; font-size: 12px; font-style: normal; font-variant-ligatures: normal; font-variant-caps: normal; font-weight: 400; letter-spacing: normal; orphans: 2; text-align: center; text-indent: 0px; text-transform: none; widows: 2; word-spacing: 0px; -webkit-text-stroke-width: 0px; caret-color: rgb(0, 189, 184); background-color: rgb(248, 249, 250); text-decoration-thickness: initial; text-decoration-style: initial; text-decoration-color: initial; float: none; display: inline !important; user-select: auto;&quot;&gt;ECG Electrodes&lt;/span&gt;" style="rounded=1;whiteSpace=wrap;html=1;" vertex="1" parent="1">
          <mxGeometry x="410" y="200" width="120" height="60" as="geometry" />
        </mxCell>
        <mxCell id="qfALEyXTaFNetK454jgi-17" value="" style="endArrow=none;html=1;rounded=0;entryX=0.5;entryY=1;entryDx=0;entryDy=0;exitX=0.477;exitY=0.001;exitDx=0;exitDy=0;exitPerimeter=0;" edge="1" parent="1" source="qfALEyXTaFNetK454jgi-1" target="qfALEyXTaFNetK454jgi-16">
          <mxGeometry width="50" height="50" relative="1" as="geometry">
            <mxPoint x="470" y="360" as="sourcePoint" />
            <mxPoint x="640" y="330" as="targetPoint" />
          </mxGeometry>
        </mxCell>
        <mxCell id="qfALEyXTaFNetK454jgi-18" value="Human body" style="rounded=1;whiteSpace=wrap;html=1;" vertex="1" parent="1">
          <mxGeometry x="670" y="200" width="120" height="60" as="geometry" />
        </mxCell>
        <mxCell id="qfALEyXTaFNetK454jgi-19" value="" style="endArrow=none;html=1;rounded=0;entryX=0;entryY=0.5;entryDx=0;entryDy=0;exitX=1;exitY=0.5;exitDx=0;exitDy=0;" edge="1" parent="1" source="qfALEyXTaFNetK454jgi-16" target="qfALEyXTaFNetK454jgi-18">
          <mxGeometry width="50" height="50" relative="1" as="geometry">
            <mxPoint x="560" y="440" as="sourcePoint" />
            <mxPoint x="610" y="390" as="targetPoint" />
          </mxGeometry>
        </mxCell>
      </root>
    </mxGraphModel>
  </diagram>
</mxfile>
